<svg id="logo" xmlns="http://www.w3.org/2000/svg" viewBox="0 0 248.551 29.859">
  <title>newlogo</title>
  <g>
    <path d="M715.163,169.574v-1.391h-3.158a11.744,11.744,0,0,0-2.948-7.141L710.3,159.8l-.983-.983-1.238,1.237a11.739,11.739,0,0,0-7.135-2.961v-3.159h-1.39V157.1a11.735,11.735,0,0,0-7.141,2.948l-1.239-1.238-.983.983,1.238,1.237a11.736,11.736,0,0,0-2.962,7.135H685.3v1.391h3.158a11.738,11.738,0,0,0,2.948,7.141l-1.238,1.238.983.983,1.238-1.237a11.739,11.739,0,0,0,7.135,2.961V183.8h1.39V180.64a11.747,11.747,0,0,0,7.141-2.948l1.238,1.238.984-.983-1.238-1.238A11.736,11.736,0,0,0,712,169.574Zm-14.93,9.254a9.961,9.961,0,1,1,9.96-9.96,9.971,9.971,0,0,1-9.96,9.96" transform="translate(-466.613 -153.938)" style="fill: #333"/>
    <path d="M703.652,171.8a7.807,7.807,0,0,0,1.039,1.494,7.9,7.9,0,0,0-1.5-1.04,7.657,7.657,0,0,0-1.957-.729c-.041.106-.081.213-.118.321a14.788,14.788,0,0,0-.87,4.648,14.9,14.9,0,0,0-.9-4.727c-.032-.084-.063-.167-.1-.248a7.682,7.682,0,0,0-1.978.733,7.782,7.782,0,0,0-1.492,1.036,7.782,7.782,0,0,0,1.765-3.443l-.287-.108a14.772,14.772,0,0,0-4.715-.9,14.829,14.829,0,0,0,4.715-.9c.1-.034.191-.071.285-.109a7.791,7.791,0,0,0-1.748-3.42,7.79,7.79,0,0,0,1.477,1.022,7.7,7.7,0,0,0,1.976.733c.033-.085.066-.171.1-.256a14.9,14.9,0,0,0,.9-4.727,14.788,14.788,0,0,0,.87,4.648c.037.11.079.221.123.331a7.707,7.707,0,0,0,1.952-.727,7.813,7.813,0,0,0,1.5-1.045,7.893,7.893,0,0,0-1.043,1.5,7.8,7.8,0,0,0-.735,1.98c.1.039.192.075.29.108a14.857,14.857,0,0,0,4.61.866,14.769,14.769,0,0,0-4.61.864c-.1.033-.2.07-.292.108a7.756,7.756,0,0,0,.737,1.992" transform="translate(-466.613 -153.938)" style="fill: #333"/>
    <polygon points="0 26.567 0 3.228 5.849 3.228 5.849 21.426 17.194 21.426 17.194 26.567 0 26.567" style="fill: #333"/>
    <rect x="19.951" y="3.228" width="5.761" height="23.339" style="fill: #333"/>
    <polygon points="29.94 26.567 29.94 3.228 35.552 3.228 45.804 18.354 45.508 12.74 45.508 3.228 51.004 3.228 51.004 26.567 45.39 26.567 35.14 11.441 35.435 17.054 35.435 26.567 29.94 26.567" style="fill: #333"/>
    <polygon points="101.91 26.567 101.91 3.228 107.759 3.228 107.759 21.426 119.104 21.426 119.104 26.567 101.91 26.567" style="fill: #333"/>
    <polygon points="171.555 26.567 171.555 3.228 188.542 3.228 188.542 8.132 177.258 8.132 177.258 12.327 187.803 12.327 187.803 17.142 177.258 17.142 177.258 21.633 189.075 21.633 189.075 26.567 171.555 26.567" style="fill: #333"/>
    <path d="M586.671,168.868c0-7.126,5.4-12.348,12.695-12.348s12.7,5.222,12.7,12.348-5.395,12.348-12.7,12.348-12.695-5.222-12.695-12.348m19.7,0a7.006,7.006,0,1,0-7,7.167,6.861,6.861,0,0,0,7-7.167" transform="translate(-466.613 -153.938)" style="fill: #333"/>
    <polygon points="76.698 3.261 69.762 3.261 60.823 13.646 60.823 3.228 58.775 3.228 58.775 3.261 55.116 3.261 55.116 26.559 60.785 26.559 60.785 21.328 64.002 17.669 70.611 26.559 77.191 26.559 67.422 13.81 76.698 3.261" style="fill: #333"/>
    <path d="M555.466,157.2h-9.59v23.3h5.577v-6.2h4.013c6.5,0,10.295-3.373,10.295-8.575,0-5.146-3.8-8.519-10.295-8.519m-.245,12.492h-3.768V161.8h3.768c3.1,0,4.964,1.344,4.964,3.917,0,2.6-1.869,3.973-4.964,3.973" transform="translate(-466.613 -153.938)" style="fill: #333"/>
    <path d="M629.483,180.583l-4.747-7.376h-4.357v7.376H614.91V157.194h9.856c6.22,0,9.855,3.156,9.855,8.007a7.252,7.252,0,0,1-4.477,6.973l5.679,8.409Zm-9.1-12h4.146c2.885,0,4.628-1.177,4.628-3.386s-1.743-3.387-4.628-3.387h-4.146Z" transform="translate(-466.613 -153.938)" style="fill: #333"/>
    <path d="M673.024,180.583l-4.747-7.376H663.92v7.376h-5.469V157.194h9.856c6.22,0,9.855,3.156,9.855,8.007a7.252,7.252,0,0,1-4.477,6.973l5.679,8.409Zm-9.1-12h4.147c2.884,0,4.627-1.177,4.627-3.386s-1.743-3.387-4.627-3.387H663.92Z" transform="translate(-466.613 -153.938)" style="fill: #333"/>
  </g>
</svg>
