<?xml version="1.0" encoding="utf-8"?>
<!-- Generator: Adobe Illustrator 22.0.1, SVG Export Plug-In . SVG Version: 6.00 Build 0)  -->
<svg version="1.1" id="레이어_1" xmlns="http://www.w3.org/2000/svg" xmlns:xlink="http://www.w3.org/1999/xlink" x="0px"
	 y="0px" viewBox="0 0 248.55 29.86" style="enable-background:new 0 0 248.55 29.86;" xml:space="preserve">
<style type="text/css">
	.st0{fill:#FFFFFF;}
</style>
<g>
	<path class="st0" d="M248.55,15.64v-1.39h-3.16c-0.16-2.74-1.24-5.22-2.95-7.14l1.24-1.24l-0.98-0.98l-1.24,1.24
		c-1.92-1.71-4.4-2.8-7.13-2.96V0h-1.39v3.16c-2.74,0.16-5.22,1.24-7.14,2.95l-1.24-1.24l-0.98,0.98l1.24,1.24
		c-1.71,1.92-2.8,4.4-2.96,7.13h-3.16v1.39h3.16c0.16,2.74,1.24,5.22,2.95,7.14l-1.24,1.24l0.98,0.98l1.24-1.24
		c1.92,1.71,4.4,2.8,7.13,2.96v3.16h1.39V26.7c2.74-0.16,5.22-1.24,7.14-2.95l1.24,1.24l0.98-0.98l-1.24-1.24
		c1.71-1.92,2.8-4.4,2.96-7.14L248.55,15.64L248.55,15.64z M233.62,24.89c-5.49,0-9.96-4.47-9.96-9.96s4.47-9.96,9.96-9.96
		s9.96,4.47,9.96,9.96S239.11,24.89,233.62,24.89"/>
	<path class="st0" d="M237.04,17.86c0.29,0.54,0.64,1.04,1.04,1.49c-0.45-0.4-0.96-0.75-1.49-1.04c-0.61-0.33-1.26-0.57-1.96-0.73
		c-0.04,0.11-0.08,0.21-0.12,0.32c-0.53,1.46-0.83,3.02-0.87,4.65c-0.04-1.66-0.36-3.25-0.9-4.73c-0.03-0.08-0.06-0.17-0.1-0.25
		c-0.7,0.15-1.36,0.4-1.98,0.73c-0.54,0.29-1.04,0.63-1.49,1.04c0.4-0.45,0.75-0.95,1.04-1.49c0.32-0.61,0.57-1.26,0.73-1.95
		c-0.1-0.04-0.19-0.07-0.29-0.11c-1.48-0.54-3.06-0.86-4.71-0.9c1.65-0.05,3.24-0.36,4.71-0.9c0.1-0.03,0.19-0.07,0.29-0.11
		c-0.15-0.69-0.4-1.34-0.72-1.94c-0.28-0.53-0.63-1.03-1.02-1.48c0.45,0.4,0.95,0.74,1.48,1.02c0.61,0.33,1.28,0.58,1.98,0.73
		c0.03-0.08,0.07-0.17,0.1-0.26c0.54-1.48,0.85-3.07,0.9-4.73c0.04,1.63,0.34,3.19,0.87,4.65c0.04,0.11,0.08,0.22,0.12,0.33
		c0.69-0.15,1.34-0.4,1.95-0.73c0.54-0.29,1.04-0.64,1.5-1.05c-0.4,0.46-0.75,0.96-1.04,1.5c-0.33,0.62-0.58,1.28-0.74,1.98
		c0.1,0.04,0.19,0.08,0.29,0.11c1.45,0.52,3,0.82,4.61,0.87c-1.61,0.04-3.16,0.34-4.61,0.86c-0.1,0.03-0.2,0.07-0.29,0.11
		C236.46,16.57,236.71,17.24,237.04,17.86"/>
	<polygon class="st0" points="0,26.57 0,3.23 5.85,3.23 5.85,21.43 17.19,21.43 17.19,26.57 	"/>
	<rect x="19.95" y="3.23" class="st0" width="5.76" height="23.34"/>
	<polygon class="st0" points="29.94,26.57 29.94,3.23 35.55,3.23 45.8,18.35 45.51,12.74 45.51,3.23 51,3.23 51,26.57 45.39,26.57 
		35.14,11.44 35.44,17.05 35.44,26.57 	"/>
	<polygon class="st0" points="101.91,26.57 101.91,3.23 107.76,3.23 107.76,21.43 119.1,21.43 119.1,26.57 	"/>
	<polygon class="st0" points="171.56,26.57 171.56,3.23 188.54,3.23 188.54,8.13 177.26,8.13 177.26,12.33 187.8,12.33 187.8,17.14 
		177.26,17.14 177.26,21.63 189.08,21.63 189.08,26.57 	"/>
	<path class="st0" d="M120.06,14.93c0-7.13,5.4-12.35,12.69-12.35c7.3,0,12.7,5.22,12.7,12.35s-5.4,12.35-12.7,12.35
		S120.06,22.06,120.06,14.93 M139.76,14.93c0-4.18-2.99-7.17-7-7.17c-4.02,0-7,2.99-7,7.17c0,4.15,2.99,7.17,7,7.17
		C136.77,22.1,139.76,19.08,139.76,14.93"/>
	<polygon class="st0" points="76.7,3.26 69.76,3.26 60.82,13.65 60.82,3.23 58.78,3.23 58.78,3.26 55.12,3.26 55.12,26.56 
		60.79,26.56 60.79,21.33 64,17.67 70.61,26.56 77.19,26.56 67.42,13.81 	"/>
	<path class="st0" d="M88.85,3.26h-9.59v23.3h5.58v-6.2h4.01c6.5,0,10.29-3.37,10.29-8.57C99.15,6.63,95.35,3.26,88.85,3.26
		 M88.61,15.75h-3.77V7.86h3.77c3.09,0,4.96,1.34,4.96,3.92C93.57,14.38,91.7,15.75,88.61,15.75"/>
	<path class="st0" d="M162.87,26.65l-4.75-7.38h-4.36v7.38h-5.47V3.26h9.86c6.22,0,9.85,3.16,9.85,8.01c0,3.21-1.59,5.68-4.48,6.97
		l5.68,8.41H162.87z M153.77,14.65h4.15c2.88,0,4.63-1.18,4.63-3.39s-1.74-3.39-4.63-3.39h-4.15V14.65z"/>
	<path class="st0" d="M206.41,26.65l-4.75-7.38h-4.36v7.38h-5.47V3.26h9.86c6.22,0,9.85,3.16,9.85,8.01c0,3.21-1.59,5.68-4.48,6.97
		l5.68,8.41H206.41z M197.31,14.65h4.15c2.88,0,4.63-1.18,4.63-3.39s-1.74-3.39-4.63-3.39h-4.15V14.65z"/>
</g>
</svg>
