<?xml version="1.0" encoding="iso-8859-1"?>
<!-- Generator: Adobe Illustrator 28.3.0, SVG Export Plug-In . SVG Version: 6.00 Build 0)  -->
<svg version="1.1" id="Layer_1" xmlns="http://www.w3.org/2000/svg" xmlns:xlink="http://www.w3.org/1999/xlink" x="0px" y="0px"
	 viewBox="0 0 1030.075 568.675" style="enable-background:new 0 0 1030.075 568.675;" xml:space="preserve">
<rect x="-0.47" y="8.749" style="fill:#FFFFFF;" width="1031.015" height="568.351"/>
<g>
	<g>
		<path d="M677.464,209.512v-15.045h-34.169c-1.701-29.6-13.421-56.449-31.898-77.269l13.399-13.398l-10.638-10.638l-13.391,13.391
			c-20.788-18.519-47.615-30.291-77.206-32.046v-34.18h-15.044v34.169c-29.601,1.701-56.45,13.421-77.269,31.898l-13.399-13.399
			l-10.638,10.638l13.391,13.391c-18.519,20.788-30.291,47.616-32.046,77.206h-34.18v15.045h34.168
			c1.701,29.6,13.421,56.449,31.898,77.269l-13.399,13.399l10.638,10.638l13.391-13.391c20.789,18.519,47.616,30.291,77.207,32.046
			v34.18h15.044v-34.169c29.6-1.701,56.449-13.421,77.268-31.898l13.398,13.399l10.638-10.638l-13.391-13.391
			c18.519-20.789,30.291-47.616,32.046-77.206H677.464z M515.92,309.646c-59.427,0-107.774-48.347-107.774-107.774
			c0-59.427,48.347-107.774,107.774-107.774c59.427,0,107.774,48.347,107.774,107.774
			C623.694,261.298,575.346,309.646,515.92,309.646z"/>
		<path d="M552.912,233.597c3.108,5.833,6.915,11.261,11.239,16.171c-4.91-4.347-10.338-8.131-16.171-11.261
			c-6.599-3.536-13.694-6.216-21.172-7.883c-0.451,1.149-0.878,2.297-1.284,3.468c-5.676,15.766-8.964,32.681-9.415,50.294
			c-0.473-17.928-3.851-35.136-9.707-51.149c-0.338-0.901-0.676-1.802-1.036-2.68c-7.568,1.667-14.752,4.369-21.397,7.928
			c-5.811,3.108-11.239,6.869-16.149,11.216c4.347-4.91,8.108-10.316,11.216-16.126c3.514-6.577,6.194-13.671,7.883-21.126
			c-1.036-0.405-2.072-0.788-3.108-1.171c-15.969-5.879-33.131-9.28-51.014-9.752c17.883-0.496,35.046-3.897,51.014-9.775
			c1.036-0.36,2.072-0.766,3.086-1.171c-1.667-7.433-4.347-14.482-7.838-21.014c-3.063-5.766-6.802-11.126-11.081-15.991
			c4.865,4.279,10.225,7.973,15.991,11.059c6.644,3.559,13.829,6.261,21.374,7.928c0.36-0.924,0.721-1.847,1.059-2.77
			c5.856-16.014,9.234-33.221,9.707-51.149c0.451,17.613,3.739,34.527,9.415,50.293c0.405,1.194,0.856,2.387,1.329,3.581
			c7.455-1.667,14.55-4.347,21.126-7.86c5.856-3.131,11.284-6.937,16.216-11.307c-4.347,4.933-8.153,10.36-11.284,16.216
			c-3.559,6.667-6.261,13.851-7.951,21.419c1.036,0.428,2.072,0.811,3.131,1.171c15.653,5.631,32.433,8.874,49.888,9.37
			c-17.455,0.473-34.235,3.716-49.888,9.347c-1.059,0.36-2.117,0.766-3.153,1.171C546.606,219.656,549.331,226.886,552.912,233.597z
			"/>
	</g>
	<g>
		<path d="M68.538,526.871v-97.944h24.547v76.368h47.609v21.577H68.538z"/>
		<path d="M152.264,526.871v-97.944h24.176v97.944H152.264z"/>
		<path d="M194.185,526.871v-97.944h23.55l43.026,63.479l-1.241-23.56v-39.918h23.062v97.944h-23.56l-43.016-63.479l1.241,23.555
			v39.923H194.185z"/>
		<path d="M299.987,526.871v-97.944h23.805v42.523l10.29-11.902l27.401-30.62h29.257l-36.322,41.282l37.818,56.663h-29.013
			l-24.43-38.932l-15,17.111v21.821H299.987z"/>
		<path d="M424.384,526.871h-23.433v-97.944h47.482c22.075,0,35.961,12.645,35.961,34.466c0,21.821-13.886,34.466-35.961,34.466
			h-24.049V526.871z M424.384,449.506v27.772h21.577c8.678,0,14.375-4.71,14.375-13.886c0-9.176-5.697-13.886-14.375-13.886H424.384
			z"/>
		<path d="M496.217,526.871v-97.944h24.547v76.368h47.609v21.577H496.217z"/>
		<path d="M625.569,426.444c31.739,0,53.932,21.449,53.932,51.454c0,30-22.192,51.449-53.932,51.449
			c-31.866,0-53.931-21.449-53.931-51.449C571.638,447.894,593.703,426.444,625.569,426.444z M625.569,507.776
			c16.857,0,28.261-12.024,28.261-29.878s-11.404-29.883-28.261-29.883c-16.866,0-28.27,12.029-28.27,29.883
			S608.703,507.776,625.569,507.776z"/>
		<path d="M788.493,526.871v-97.944h71.286v20.58h-47.355v17.604h44.257v20.208h-44.257v18.845h49.593v20.707H788.493z"/>
		<path d="M897.062,526.871h-23.433v-97.944h46.495c22.065,0,35.951,11.902,35.951,32.482c0,13.515-6.068,23.184-16.358,28.265
			l21.821,37.197h-26.541l-18.469-33.23h-19.466V526.871z M897.062,449.379v24.054h20.707c8.677,0,14.384-4.09,14.384-12.024
			c0-7.935-5.707-12.029-14.384-12.029H897.062z"/>
		<path d="M714.054,526.871h-23.433v-97.944h46.495c22.065,0,35.951,11.902,35.951,32.482c0,13.515-6.068,23.184-16.358,28.265
			l21.821,37.197h-26.541l-18.469-33.23h-19.466V526.871z M714.054,449.379v24.054h20.707c8.677,0,14.384-4.09,14.384-12.024
			c0-7.935-5.707-12.029-14.384-12.029H714.054z"/>
	</g>
</g>
</svg>
