<?xml version="1.0" encoding="utf-8"?>
<!-- Generator: Adobe Illustrator 28.3.0, SVG Export Plug-In . SVG Version: 6.00 Build 0)  -->
<svg version="1.1" id="Layer_1" xmlns="http://www.w3.org/2000/svg" xmlns:xlink="http://www.w3.org/1999/xlink" x="0px" y="0px"
	 viewBox="0 0 893 493" style="enable-background:new 0 0 893 493;" xml:space="preserve">
<style type="text/css">
	.st0{fill:#FFFFFF;}
	.st1{fill:#0054C0;}
</style>
<g>
	<g>
		<path class="st1" d="M608.93,171.67v-15.04h-34.17c-1.7-29.6-13.42-56.45-31.9-77.27l13.4-13.4l-10.64-10.64l-13.39,13.39
			c-20.79-18.52-47.62-30.29-77.21-32.05V2.49h-15.04v34.17c-29.6,1.7-56.45,13.42-77.27,31.9l-13.4-13.4L338.67,65.8l13.39,13.39
			c-18.52,20.79-30.29,47.62-32.05,77.21h-34.18v15.04h34.17c1.7,29.6,13.42,56.45,31.9,77.27l-13.4,13.4l10.64,10.64l13.39-13.39
			c20.79,18.52,47.62,30.29,77.21,32.05v34.18h15.04v-34.17c29.6-1.7,56.45-13.42,77.27-31.9l13.4,13.4l10.64-10.64l-13.39-13.39
			c18.52-20.79,30.29-47.62,32.05-77.21H608.93z M447.38,271.81c-59.43,0-107.77-48.35-107.77-107.77
			c0-59.43,48.35-107.77,107.77-107.77c59.43,0,107.77,48.35,107.77,107.77C555.16,223.46,506.81,271.81,447.38,271.81z"/>
		<path class="st1" d="M484.37,195.76c3.11,5.83,6.91,11.26,11.24,16.17c-4.91-4.35-10.34-8.13-16.17-11.26
			c-6.6-3.54-13.69-6.22-21.17-7.88c-0.45,1.15-0.88,2.3-1.28,3.47c-5.68,15.77-8.96,32.68-9.41,50.29
			c-0.47-17.93-3.85-35.14-9.71-51.15c-0.34-0.9-0.68-1.8-1.04-2.68c-7.57,1.67-14.75,4.37-21.4,7.93
			c-5.81,3.11-11.24,6.87-16.15,11.22c4.35-4.91,8.11-10.32,11.22-16.13c3.51-6.58,6.19-13.67,7.88-21.13
			c-1.04-0.41-2.07-0.79-3.11-1.17c-15.97-5.88-33.13-9.28-51.01-9.75c17.88-0.5,35.05-3.9,51.01-9.77
			c1.04-0.36,2.07-0.77,3.09-1.17c-1.67-7.43-4.35-14.48-7.84-21.01c-3.06-5.77-6.8-11.13-11.08-15.99
			c4.86,4.28,10.23,7.97,15.99,11.06c6.64,3.56,13.83,6.26,21.37,7.93c0.36-0.92,0.72-1.85,1.06-2.77
			c5.86-16.01,9.23-33.22,9.71-51.15c0.45,17.61,3.74,34.53,9.41,50.29c0.41,1.19,0.86,2.39,1.33,3.58
			c7.46-1.67,14.55-4.35,21.13-7.86c5.86-3.13,11.28-6.94,16.22-11.31c-4.35,4.93-8.15,10.36-11.28,16.22
			c-3.56,6.67-6.26,13.85-7.95,21.42c1.04,0.43,2.07,0.81,3.13,1.17c15.65,5.63,32.43,8.87,49.89,9.37
			c-17.46,0.47-34.23,3.72-49.89,9.35c-1.06,0.36-2.12,0.77-3.15,1.17C478.07,181.82,480.79,189.05,484.37,195.76z"/>
	</g>
	<g>
		<path class="st1" d="M0,489.03v-97.94h24.55v76.37h47.61v21.58H0z"/>
		<path class="st1" d="M83.73,489.03v-97.94h24.18v97.94H83.73z"/>
		<path class="st1" d="M125.65,489.03v-97.94h23.55l43.03,63.48l-1.24-23.56v-39.92h23.06v97.94h-23.56l-43.02-63.48l1.24,23.56
			v39.92H125.65z"/>
		<path class="st1" d="M427.68,489.03v-97.94h24.55v76.37h47.61v21.58H427.68z"/>
		<path class="st1" d="M719.96,489.03v-97.94h71.29v20.58h-47.35v17.6h44.26v20.21h-44.26v18.85h49.59v20.71H719.96z"/>
		<g>
			<path class="st1" d="M503.84,440.2c0-29.91,22.64-51.82,53.28-51.82s53.27,21.92,53.27,51.82s-22.64,51.82-53.27,51.82
				S503.84,470.1,503.84,440.2z M586.51,440.2c0-17.54-12.53-30.08-29.39-30.08c-16.86,0-29.39,12.53-29.39,30.08
				c0,17.43,12.53,30.08,29.39,30.08C573.98,470.27,586.51,457.63,586.51,440.2z"/>
		</g>
		<g>
			<polygon class="st1" points="321.87,391.23 292.77,391.23 255.25,434.81 255.25,391.09 246.66,391.09 246.66,391.23 
				231.3,391.23 231.3,489 255.09,489 255.09,467.05 268.59,451.69 296.33,489 323.94,489 282.95,435.5 			"/>
			<path class="st1" d="M372.89,391.23h-40.25V489h23.4v-26.03h16.84c27.26,0,43.2-14.16,43.2-35.99
				C416.09,405.39,400.14,391.23,372.89,391.23z M371.86,443.65h-15.82v-33.11h15.82c12.99,0,20.83,5.64,20.83,16.44
				C392.69,437.9,384.84,443.65,371.86,443.65z"/>
		</g>
		<g>
			<path class="st1" d="M683.51,489.36l-19.92-30.95H645.3v30.95h-22.95v-98.16h41.36c26.1,0,41.36,13.25,41.36,33.6
				c0,13.49-6.68,23.85-18.79,29.27l23.83,35.29H683.51z M645.3,439.02h17.4c12.11,0,19.42-4.94,19.42-14.21
				c0-9.27-7.31-14.21-19.42-14.21h-17.4V439.02z"/>
		</g>
		<g>
			<path class="st1" d="M866.24,489.36l-19.92-30.95h-18.28v30.95h-22.95v-98.16h41.36c26.1,0,41.36,13.25,41.36,33.6
				c0,13.49-6.68,23.85-18.79,29.27l23.83,35.29H866.24z M828.03,439.02h17.4c12.11,0,19.42-4.94,19.42-14.21
				c0-9.27-7.31-14.21-19.42-14.21h-17.4V439.02z"/>
		</g>
	</g>
</g>
</svg>
