<?xml version="1.0" encoding="iso-8859-1"?>
<!-- Generator: Adobe Illustrator 28.3.0, SVG Export Plug-In . SVG Version: 6.00 Build 0)  -->
<svg version="1.1" id="Layer_1" xmlns="http://www.w3.org/2000/svg" xmlns:xlink="http://www.w3.org/1999/xlink" x="0px" y="0px"
	 viewBox="0 0 893 493" style="enable-background:new 0 0 893 493;" xml:space="preserve">
<g>
	<g>
		<path style="fill:#FFFFFF;" d="M608.927,171.675V156.63h-34.169c-1.701-29.6-13.421-56.449-31.898-77.269l13.399-13.398
			L545.62,55.325l-13.391,13.391c-20.788-18.519-47.615-30.291-77.206-32.046V2.49h-15.044v34.169
			c-29.601,1.701-56.45,13.421-77.269,31.898l-13.399-13.399l-10.638,10.638l13.391,13.391
			c-18.519,20.788-30.291,47.616-32.046,77.206h-34.18v15.045h34.168c1.701,29.6,13.421,56.449,31.898,77.269l-13.399,13.399
			l10.638,10.638l13.391-13.391c20.789,18.519,47.616,30.291,77.207,32.046v34.18h15.044v-34.169
			c29.6-1.701,56.449-13.421,77.268-31.898l13.398,13.399l10.638-10.638L542.7,248.881c18.519-20.789,30.291-47.616,32.046-77.206
			H608.927z M447.382,271.808c-59.427,0-107.774-48.347-107.774-107.774c0-59.427,48.347-107.774,107.774-107.774
			c59.427,0,107.774,48.347,107.774,107.774C555.156,223.461,506.809,271.808,447.382,271.808z"/>
		<path style="fill:#FFFFFF;" d="M484.375,195.76c3.108,5.833,6.915,11.261,11.239,16.171c-4.91-4.347-10.338-8.131-16.171-11.261
			c-6.599-3.536-13.694-6.216-21.172-7.883c-0.45,1.149-0.878,2.297-1.284,3.468c-5.676,15.766-8.964,32.681-9.415,50.294
			c-0.473-17.928-3.851-35.136-9.707-51.149c-0.338-0.901-0.676-1.802-1.036-2.68c-7.568,1.667-14.752,4.369-21.397,7.928
			c-5.811,3.108-11.239,6.869-16.149,11.216c4.347-4.91,8.108-10.316,11.216-16.126c3.514-6.577,6.194-13.671,7.883-21.126
			c-1.036-0.405-2.072-0.788-3.108-1.171c-15.969-5.879-33.131-9.28-51.014-9.752c17.883-0.496,35.046-3.897,51.014-9.775
			c1.036-0.36,2.072-0.766,3.086-1.171c-1.667-7.433-4.347-14.482-7.838-21.014c-3.063-5.766-6.802-11.126-11.081-15.991
			c4.865,4.279,10.225,7.973,15.991,11.059c6.644,3.559,13.829,6.261,21.374,7.928c0.36-0.924,0.721-1.847,1.059-2.77
			c5.856-16.014,9.234-33.221,9.707-51.149c0.451,17.613,3.739,34.527,9.415,50.293c0.405,1.194,0.856,2.387,1.329,3.581
			c7.455-1.667,14.55-4.347,21.126-7.86c5.856-3.131,11.284-6.937,16.216-11.307c-4.347,4.933-8.153,10.36-11.284,16.216
			c-3.559,6.667-6.261,13.851-7.951,21.419c1.036,0.428,2.072,0.811,3.131,1.171c15.653,5.631,32.433,8.874,49.888,9.37
			c-17.455,0.473-34.235,3.716-49.888,9.347c-1.059,0.36-2.117,0.766-3.153,1.171C478.068,181.818,480.793,189.048,484.375,195.76z"
			/>
	</g>
	<g>
		<path style="fill:#FFFFFF;" d="M0,489.033v-97.944h24.547v76.368h47.609v21.577H0z"/>
		<path style="fill:#FFFFFF;" d="M83.726,489.033v-97.944h24.176v97.944H83.726z"/>
		<path style="fill:#FFFFFF;" d="M125.648,489.033v-97.944h23.55l43.026,63.479l-1.241-23.56v-39.918h23.062v97.944h-23.56
			l-43.016-63.479l1.241,23.555v39.923H125.648z"/>
		<path style="fill:#FFFFFF;" d="M231.449,489.033v-97.944h23.805v42.523l10.29-11.902l27.401-30.62h29.257l-36.322,41.282
			l37.818,56.663h-29.013l-24.43-38.932l-15,17.111v21.821H231.449z"/>
		<path style="fill:#FFFFFF;" d="M355.846,489.033h-23.433v-97.944h47.482c22.075,0,35.961,12.645,35.961,34.466
			c0,21.821-13.886,34.466-35.961,34.466h-24.049V489.033z M355.846,411.669v27.772h21.577c8.678,0,14.375-4.71,14.375-13.886
			c0-9.176-5.697-13.886-14.375-13.886H355.846z"/>
		<path style="fill:#FFFFFF;" d="M427.68,489.033v-97.944h24.547v76.368h47.609v21.577H427.68z"/>
		<path style="fill:#FFFFFF;" d="M557.031,388.607c31.739,0,53.931,21.449,53.931,51.454c0,30-22.192,51.449-53.931,51.449
			c-31.866,0-53.932-21.449-53.932-51.449C503.1,410.056,525.165,388.607,557.031,388.607z M557.031,469.939
			c16.857,0,28.26-12.024,28.26-29.878s-11.404-29.883-28.26-29.883c-16.866,0-28.27,12.029-28.27,29.883
			S540.165,469.939,557.031,469.939z"/>
		<path style="fill:#FFFFFF;" d="M719.956,489.033v-97.944h71.286v20.58h-47.355v17.604h44.257v20.208h-44.257v18.845h49.593v20.707
			H719.956z"/>
		<path style="fill:#FFFFFF;" d="M828.525,489.033h-23.433v-97.944h46.495c22.065,0,35.951,11.902,35.951,32.482
			c0,13.515-6.068,23.184-16.358,28.265L893,489.033h-26.541l-18.469-33.23h-19.466V489.033z M828.525,411.542v24.054h20.707
			c8.677,0,14.384-4.09,14.384-12.024c0-7.935-5.707-12.029-14.384-12.029H828.525z"/>
		<path style="fill:#FFFFFF;" d="M645.516,489.033h-23.433v-97.944h46.495c22.065,0,35.951,11.902,35.951,32.482
			c0,13.515-6.068,23.184-16.358,28.265l21.821,37.197h-26.541l-18.469-33.23h-19.466V489.033z M645.516,411.542v24.054h20.707
			c8.677,0,14.384-4.09,14.384-12.024c0-7.935-5.707-12.029-14.384-12.029H645.516z"/>
	</g>
</g>
</svg>
