<?xml version="1.0" encoding="utf-8"?>
<!-- Generator: Adobe Illustrator 28.3.0, SVG Export Plug-In . SVG Version: 6.00 Build 0)  -->
<svg version="1.1" id="Layer_1" xmlns="http://www.w3.org/2000/svg" xmlns:xlink="http://www.w3.org/1999/xlink" x="0px" y="0px"
	 viewBox="0 0 1087.22 162.6" style="enable-background:new 0 0 1087.22 162.6;" xml:space="preserve">
<style type="text/css">
	.st0{fill:#FFFFFF;}
	.st1{fill:#0054C0;}
</style>
<rect x="-0.35" y="0.05" class="st0" width="1087.92" height="162.5"/>
<g>
	<g>
		<path class="st1" d="M1047.36,83.79v-4.89h-11.11c-0.55-9.63-4.37-18.36-10.38-25.13l4.36-4.36l-3.46-3.46l-4.36,4.36
			c-6.76-6.02-15.49-9.85-25.11-10.42V28.76h-4.89v11.11c-9.63,0.55-18.36,4.37-25.13,10.38l-4.36-4.36l-3.46,3.46l4.36,4.36
			c-6.02,6.76-9.85,15.49-10.42,25.11h-11.12v4.89h11.11c0.55,9.63,4.37,18.36,10.38,25.13l-4.36,4.36l3.46,3.46l4.36-4.36
			c6.76,6.02,15.49,9.85,25.11,10.42v11.12h4.89v-11.11c9.63-0.55,18.36-4.37,25.13-10.38l4.36,4.36l3.46-3.46l-4.36-4.36
			c6.02-6.76,9.85-15.49,10.42-25.11H1047.36z M994.81,116.36c-19.33,0-35.06-15.73-35.06-35.06c0-19.33,15.73-35.06,35.06-35.06
			c19.33,0,35.06,15.73,35.06,35.06C1029.87,100.63,1014.14,116.36,994.81,116.36z"/>
		<path class="st1" d="M1006.84,91.62c1.01,1.9,2.25,3.66,3.66,5.26c-1.6-1.41-3.36-2.64-5.26-3.66c-2.15-1.15-4.45-2.02-6.89-2.56
			c-0.15,0.37-0.29,0.75-0.42,1.13c-1.85,5.13-2.92,10.63-3.06,16.36c-0.15-5.83-1.25-11.43-3.16-16.64
			c-0.11-0.29-0.22-0.59-0.34-0.87c-2.46,0.54-4.8,1.42-6.96,2.58c-1.89,1.01-3.66,2.23-5.25,3.65c1.41-1.6,2.64-3.36,3.65-5.25
			c1.14-2.14,2.01-4.45,2.56-6.87c-0.34-0.13-0.67-0.26-1.01-0.38c-5.19-1.91-10.78-3.02-16.59-3.17c5.82-0.16,11.4-1.27,16.59-3.18
			c0.34-0.12,0.67-0.25,1-0.38c-0.54-2.42-1.41-4.71-2.55-6.84c-1-1.88-2.21-3.62-3.6-5.2c1.58,1.39,3.33,2.59,5.2,3.6
			c2.16,1.16,4.5,2.04,6.95,2.58c0.12-0.3,0.23-0.6,0.34-0.9c1.9-5.21,3-10.81,3.16-16.64c0.15,5.73,1.22,11.23,3.06,16.36
			c0.13,0.39,0.28,0.78,0.43,1.16c2.42-0.54,4.73-1.41,6.87-2.56c1.9-1.02,3.67-2.26,5.27-3.68c-1.41,1.6-2.65,3.37-3.67,5.27
			c-1.16,2.17-2.04,4.51-2.59,6.97c0.34,0.14,0.67,0.26,1.02,0.38c5.09,1.83,10.55,2.89,16.23,3.05
			c-5.68,0.15-11.14,1.21-16.23,3.04c-0.34,0.12-0.69,0.25-1.03,0.38C1004.79,87.09,1005.68,89.44,1006.84,91.62z"/>
	</g>
	<g>
		<path class="st1" d="M39.86,130.14V32.19h24.55v76.37h47.61v21.58H39.86z"/>
		<path class="st1" d="M123.59,130.14V32.19h24.18v97.94H123.59z"/>
		<path class="st1" d="M165.51,130.14V32.19h23.55l43.03,63.48l-1.24-23.56V32.19h23.06v97.94h-23.56l-43.02-63.48l1.24,23.56v39.92
			H165.51z"/>
		<path class="st1" d="M467.54,130.14V32.19h24.55v76.37h47.61v21.58H467.54z"/>
		<path class="st1" d="M759.82,130.14V32.19h71.29v20.58h-47.35v17.6H828v20.21h-44.26v18.85h49.59v20.71H759.82z"/>
		<g>
			<path class="st1" d="M543.7,81.3c0-29.91,22.64-51.82,53.28-51.82s53.27,21.92,53.27,51.82s-22.64,51.82-53.27,51.82
				S543.7,111.21,543.7,81.3z M626.37,81.3c0-17.54-12.53-30.08-29.39-30.08c-16.86,0-29.39,12.53-29.39,30.08
				c0,17.43,12.53,30.08,29.39,30.08C613.84,111.38,626.37,98.73,626.37,81.3z"/>
		</g>
		<g>
			<polygon class="st1" points="361.73,32.33 332.63,32.33 295.11,75.91 295.11,32.19 286.52,32.19 286.52,32.33 271.16,32.33 
				271.16,130.11 294.95,130.11 294.95,108.15 308.45,92.8 336.19,130.11 363.8,130.11 322.81,76.6 			"/>
			<path class="st1" d="M412.75,32.33H372.5v97.77h23.4v-26.03h16.84c27.26,0,43.2-14.16,43.2-35.99
				C455.95,46.49,440,32.33,412.75,32.33z M411.72,84.76H395.9V51.65h15.82c12.99,0,20.83,5.64,20.83,16.44
				C432.55,79,424.7,84.76,411.72,84.76z"/>
		</g>
		<g>
			<path class="st1" d="M723.37,130.47l-19.92-30.95h-18.28v30.95h-22.95V32.31h41.36c26.1,0,41.36,13.25,41.36,33.6
				c0,13.49-6.68,23.85-18.79,29.27l23.83,35.29H723.37z M685.16,80.12h17.4c12.11,0,19.42-4.94,19.42-14.21
				c0-9.27-7.31-14.21-19.42-14.21h-17.4V80.12z"/>
		</g>
		<g>
			<path class="st1" d="M906.1,130.47l-19.92-30.95h-18.28v30.95h-22.95V32.31h41.36c26.1,0,41.36,13.25,41.36,33.6
				c0,13.49-6.68,23.85-18.79,29.27l23.83,35.29H906.1z M867.89,80.12h17.4c12.11,0,19.42-4.94,19.42-14.21
				c0-9.27-7.31-14.21-19.42-14.21h-17.4V80.12z"/>
		</g>
	</g>
</g>
</svg>
