<?xml version="1.0" encoding="iso-8859-1"?>
<!-- Generator: Adobe Illustrator 28.3.0, SVG Export Plug-In . SVG Version: 6.00 Build 0)  -->
<svg version="1.1" id="Layer_1" xmlns="http://www.w3.org/2000/svg" xmlns:xlink="http://www.w3.org/1999/xlink" x="0px" y="0px"
	 viewBox="0 0 1087.216 162.601" style="enable-background:new 0 0 1087.216 162.601;" xml:space="preserve">
<rect x="-0.354" y="0.053" style="fill:#0054C0;" width="1087.924" height="162.495"/>
<g>
	<g>
		<path style="fill:#FFFFFF;" d="M1047.356,82.699v-4.893h-11.114c-0.553-9.628-4.365-18.361-10.375-25.133l4.358-4.358l-3.46-3.46
			l-4.356,4.355c-6.762-6.024-15.488-9.853-25.112-10.423V27.668h-4.893v11.114c-9.628,0.553-18.361,4.365-25.133,10.375
			l-4.358-4.358l-3.46,3.46l4.356,4.356c-6.024,6.762-9.853,15.488-10.423,25.113h-11.117v4.893h11.114
			c0.553,9.628,4.365,18.361,10.375,25.133l-4.358,4.358l3.46,3.46l4.356-4.356c6.762,6.024,15.488,9.853,25.113,10.423v11.118
			h4.893v-11.114c9.628-0.553,18.361-4.365,25.133-10.375l4.358,4.358l3.46-3.46l-4.355-4.356
			c6.024-6.762,9.853-15.488,10.423-25.113H1047.356z M994.811,115.269c-19.33,0-35.055-15.726-35.055-35.055
			c0-19.33,15.726-35.055,35.055-35.055c19.33,0,35.055,15.726,35.055,35.055C1029.866,99.543,1014.141,115.269,994.811,115.269z"/>
		<path style="fill:#FFFFFF;" d="M1006.844,90.533c1.011,1.897,2.249,3.663,3.656,5.26c-1.597-1.414-3.363-2.645-5.26-3.663
			c-2.146-1.15-4.454-2.022-6.886-2.564c-0.147,0.374-0.286,0.747-0.418,1.128c-1.846,5.128-2.916,10.63-3.062,16.359
			c-0.154-5.831-1.253-11.428-3.157-16.637c-0.11-0.293-0.22-0.586-0.337-0.872c-2.461,0.542-4.798,1.421-6.96,2.579
			c-1.89,1.011-3.656,2.234-5.253,3.648c1.414-1.597,2.637-3.355,3.648-5.245c1.143-2.139,2.015-4.447,2.564-6.872
			c-0.337-0.132-0.674-0.256-1.011-0.381c-5.194-1.912-10.776-3.018-16.593-3.172c5.817-0.161,11.399-1.267,16.593-3.179
			c0.337-0.117,0.674-0.249,1.004-0.381c-0.542-2.418-1.414-4.711-2.549-6.835c-0.996-1.875-2.212-3.619-3.604-5.201
			c1.582,1.392,3.326,2.593,5.201,3.597c2.161,1.158,4.498,2.037,6.952,2.579c0.117-0.3,0.234-0.601,0.344-0.901
			c1.905-5.209,3.004-10.806,3.157-16.637c0.147,5.729,1.216,11.231,3.062,16.359c0.132,0.388,0.278,0.777,0.432,1.165
			c2.425-0.542,4.733-1.414,6.872-2.557c1.905-1.018,3.67-2.256,5.275-3.678c-1.414,1.604-2.652,3.37-3.67,5.275
			c-1.157,2.168-2.037,4.505-2.586,6.967c0.337,0.139,0.674,0.264,1.018,0.381c5.092,1.831,10.549,2.886,16.227,3.048
			c-5.678,0.154-11.135,1.209-16.227,3.04c-0.344,0.117-0.689,0.249-1.026,0.381C1004.792,85.998,1005.679,88.35,1006.844,90.533z"
			/>
	</g>
	<g>
		<path style="fill:#FFFFFF;" d="M39.858,129.162V31.218h24.547v76.368h47.609v21.577H39.858z"/>
		<path style="fill:#FFFFFF;" d="M123.584,129.162V31.218h24.176v97.944H123.584z"/>
		<path style="fill:#FFFFFF;" d="M165.506,129.162V31.218h23.55l43.026,63.479l-1.241-23.56V31.218h23.062v97.944h-23.56
			l-43.016-63.479l1.241,23.555v39.923H165.506z"/>
		<path style="fill:#FFFFFF;" d="M271.307,129.162V31.218h23.805v42.523l10.29-11.902l27.401-30.62h29.257L325.737,72.5
			l37.818,56.663h-29.013l-24.43-38.932l-15,17.111v21.821H271.307z"/>
		<path style="fill:#FFFFFF;" d="M395.704,129.162h-23.433V31.218h47.482c22.075,0,35.961,12.645,35.961,34.466
			s-13.886,34.466-35.961,34.466h-24.049V129.162z M395.704,51.798V79.57h21.577c8.678,0,14.375-4.71,14.375-13.886
			s-5.697-13.886-14.375-13.886H395.704z"/>
		<path style="fill:#FFFFFF;" d="M467.538,129.162V31.218h24.547v76.368h47.609v21.577H467.538z"/>
		<path style="fill:#FFFFFF;" d="M596.89,28.736c31.739,0,53.932,21.449,53.932,51.454c0,30-22.192,51.449-53.932,51.449
			c-31.866,0-53.931-21.449-53.931-51.449C542.958,50.185,565.023,28.736,596.89,28.736z M596.89,110.068
			c16.857,0,28.261-12.024,28.261-29.878s-11.404-29.883-28.261-29.883c-16.866,0-28.27,12.029-28.27,29.883
			S580.023,110.068,596.89,110.068z"/>
		<path style="fill:#FFFFFF;" d="M759.814,129.162V31.218h71.286v20.58h-47.355v17.604h44.257V89.61h-44.257v18.845h49.593v20.707
			H759.814z"/>
		<path style="fill:#FFFFFF;" d="M868.383,129.162H844.95V31.218h46.495c22.065,0,35.951,11.902,35.951,32.482
			c0,13.515-6.068,23.184-16.358,28.265l21.821,37.197h-26.541l-18.469-33.23h-19.466V129.162z M868.383,51.671v24.054h20.707
			c8.677,0,14.384-4.09,14.384-12.024s-5.707-12.029-14.384-12.029H868.383z"/>
		<path style="fill:#FFFFFF;" d="M685.374,129.162h-23.433V31.218h46.495c22.065,0,35.951,11.902,35.951,32.482
			c0,13.515-6.068,23.184-16.358,28.265l21.821,37.197h-26.541l-18.469-33.23h-19.466V129.162z M685.374,51.671v24.054h20.707
			c8.678,0,14.384-4.09,14.384-12.024s-5.707-12.029-14.384-12.029H685.374z"/>
	</g>
</g>
</svg>
