<?xml version="1.0" encoding="utf-8"?>
<!-- Generator: Adobe Illustrator 28.3.0, SVG Export Plug-In . SVG Version: 6.00 Build 0)  -->
<svg version="1.1" id="Layer_1" xmlns="http://www.w3.org/2000/svg" xmlns:xlink="http://www.w3.org/1999/xlink" x="0px" y="0px"
	 viewBox="0 0 512 512" style="enable-background:new 0 0 512 512;" xml:space="preserve">
<style type="text/css">
	.st0{fill:#FFFFFF;}
	.st1{fill:#0054C0;}
</style>
<g>
	<rect class="st0" width="512" height="512"/>
	<g>
		<g>
			<path d="M462.79,265.78v-19.26h-43.74c-2.18-37.89-17.18-72.26-40.83-98.91l17.15-17.15l-13.62-13.62l-17.14,17.14
				c-26.61-23.71-60.95-38.77-98.83-41.02V49.21h-19.26v43.74c-37.89,2.18-72.26,17.18-98.91,40.83l-17.15-17.15l-13.62,13.62
				l17.14,17.14c-23.71,26.61-38.77,60.95-41.02,98.83H49.21v19.26h43.74c2.18,37.89,17.18,72.26,40.83,98.91l-17.15,17.15
				l13.62,13.62l17.14-17.14c26.61,23.71,60.95,38.77,98.83,41.02v43.75h19.26v-43.74c37.89-2.18,72.26-17.18,98.91-40.83
				l17.15,17.15l13.62-13.62l-17.14-17.14c23.71-26.61,38.77-60.95,41.02-98.83H462.79z M256,393.96
				c-76.07,0-137.96-61.89-137.96-137.96c0-76.07,61.89-137.96,137.96-137.96c76.07,0,137.96,61.89,137.96,137.96
				C393.96,332.07,332.07,393.96,256,393.96z"/>
			<path d="M303.35,296.61c3.98,7.47,8.85,14.42,14.39,20.7c-6.29-5.56-13.23-10.41-20.7-14.42c-8.45-4.53-17.53-7.96-27.1-10.09
				c-0.58,1.47-1.12,2.94-1.64,4.44c-7.27,20.18-11.47,41.83-12.05,64.38c-0.61-22.95-4.93-44.98-12.43-65.47
				c-0.43-1.15-0.86-2.31-1.33-3.43c-9.69,2.13-18.88,5.59-27.39,10.15c-7.44,3.98-14.39,8.79-20.67,14.36
				c5.56-6.29,10.38-13.2,14.36-20.64c4.5-8.42,7.93-17.5,10.09-27.04c-1.33-0.52-2.65-1.01-3.98-1.5
				c-20.44-7.52-42.41-11.88-65.3-12.48c22.89-0.63,44.86-4.99,65.3-12.51c1.33-0.46,2.65-0.98,3.95-1.5
				c-2.13-9.51-5.56-18.54-10.03-26.9c-3.92-7.38-8.71-14.24-14.18-20.47c6.23,5.48,13.09,10.21,20.47,14.16
				c8.51,4.56,17.7,8.01,27.36,10.15c0.46-1.18,0.92-2.36,1.35-3.55c7.5-20.5,11.82-42.53,12.43-65.47
				c0.58,22.55,4.79,44.2,12.05,64.38c0.52,1.53,1.1,3.06,1.7,4.58c9.54-2.13,18.62-5.56,27.04-10.06
				c7.5-4.01,14.44-8.88,20.76-14.47c-5.56,6.31-10.44,13.26-14.44,20.76c-4.56,8.53-8.02,17.73-10.18,27.42
				c1.33,0.55,2.65,1.04,4.01,1.5c20.04,7.21,41.52,11.36,63.86,11.99c-22.34,0.61-43.82,4.76-63.86,11.96
				c-1.36,0.46-2.71,0.98-4.04,1.5C295.28,278.77,298.77,288.02,303.35,296.61z"/>
		</g>
	</g>
</g>
</svg>
