<?xml version="1.0" encoding="iso-8859-1"?>
<!-- Generator: Adobe Illustrator 28.3.0, SVG Export Plug-In . SVG Version: 6.00 Build 0)  -->
<svg version="1.1" id="Layer_1" xmlns="http://www.w3.org/2000/svg" xmlns:xlink="http://www.w3.org/1999/xlink" x="0px" y="0px"
	 viewBox="0 0 1087.216 162.601" style="enable-background:new 0 0 1087.216 162.601;" xml:space="preserve">
<rect x="-0.354" y="0.686" style="fill:#FFFFFF;" width="1087.924" height="162.495"/>
<g>
	<g>
		<path d="M1047.356,85.701v-4.893h-11.114c-0.553-9.628-4.365-18.361-10.375-25.133l4.358-4.358l-3.46-3.46l-4.356,4.355
			c-6.762-6.024-15.488-9.853-25.112-10.423V30.671h-4.893v11.114c-9.628,0.553-18.361,4.365-25.133,10.375l-4.358-4.358l-3.46,3.46
			l4.356,4.356c-6.024,6.762-9.853,15.488-10.423,25.113h-11.117v4.893h11.114c0.553,9.628,4.365,18.361,10.375,25.133l-4.358,4.358
			l3.46,3.46l4.356-4.356c6.762,6.024,15.488,9.853,25.113,10.423v11.118h4.893v-11.114c9.628-0.553,18.361-4.365,25.133-10.375
			l4.358,4.358l3.46-3.46l-4.355-4.356c6.024-6.762,9.853-15.488,10.423-25.113H1047.356z M994.811,118.271
			c-19.33,0-35.055-15.726-35.055-35.055c0-19.33,15.726-35.055,35.055-35.055c19.33,0,35.055,15.726,35.055,35.055
			C1029.866,102.545,1014.141,118.271,994.811,118.271z"/>
		<path d="M1006.844,93.535c1.011,1.897,2.249,3.663,3.656,5.26c-1.597-1.414-3.363-2.645-5.26-3.663
			c-2.146-1.15-4.454-2.022-6.886-2.564c-0.147,0.374-0.286,0.747-0.418,1.128c-1.846,5.128-2.916,10.63-3.062,16.359
			c-0.154-5.831-1.253-11.428-3.157-16.637c-0.11-0.293-0.22-0.586-0.337-0.872c-2.461,0.542-4.798,1.421-6.96,2.579
			c-1.89,1.011-3.656,2.234-5.253,3.648c1.414-1.597,2.637-3.355,3.648-5.245c1.143-2.139,2.015-4.447,2.564-6.872
			c-0.337-0.132-0.674-0.256-1.011-0.381c-5.194-1.912-10.776-3.018-16.593-3.172c5.817-0.161,11.399-1.267,16.593-3.179
			c0.337-0.117,0.674-0.249,1.004-0.381c-0.542-2.418-1.414-4.711-2.549-6.835c-0.996-1.875-2.212-3.619-3.604-5.201
			c1.582,1.392,3.326,2.593,5.201,3.597c2.161,1.158,4.498,2.037,6.952,2.579c0.117-0.3,0.234-0.601,0.344-0.901
			c1.905-5.209,3.004-10.806,3.157-16.637c0.147,5.729,1.216,11.231,3.062,16.359c0.132,0.388,0.278,0.777,0.432,1.165
			c2.425-0.542,4.733-1.414,6.872-2.557c1.905-1.018,3.67-2.256,5.275-3.678c-1.414,1.604-2.652,3.37-3.67,5.275
			c-1.157,2.168-2.037,4.505-2.586,6.967c0.337,0.139,0.674,0.264,1.018,0.381c5.092,1.831,10.549,2.886,16.227,3.048
			c-5.678,0.154-11.135,1.209-16.227,3.04c-0.344,0.117-0.689,0.249-1.026,0.381C1004.792,89,1005.679,91.352,1006.844,93.535z"/>
	</g>
	<g>
		<path d="M39.858,132.164V34.22h24.547v76.368h47.609v21.576H39.858z"/>
		<path d="M123.584,132.164V34.22h24.176v97.944H123.584z"/>
		<path d="M165.506,132.164V34.22h23.55l43.026,63.479l-1.241-23.56V34.22h23.062v97.944h-23.56l-43.016-63.479l1.241,23.555v39.923
			H165.506z"/>
		<path d="M271.307,132.164V34.22h23.805v42.523l10.29-11.902l27.401-30.62h29.257l-36.322,41.282l37.818,56.663h-29.013
			l-24.43-38.932l-15,17.111v21.821H271.307z"/>
		<path d="M395.704,132.164h-23.433V34.22h47.482c22.075,0,35.961,12.645,35.961,34.466s-13.886,34.466-35.961,34.466h-24.049
			V132.164z M395.704,54.8v27.772h21.577c8.678,0,14.375-4.71,14.375-13.886S425.958,54.8,417.281,54.8H395.704z"/>
		<path d="M467.538,132.164V34.22h24.547v76.368h47.609v21.576H467.538z"/>
		<path d="M596.89,31.738c31.739,0,53.932,21.449,53.932,51.454c0,30-22.192,51.449-53.932,51.449
			c-31.866,0-53.931-21.449-53.931-51.449C542.958,53.187,565.023,31.738,596.89,31.738z M596.89,113.07
			c16.857,0,28.261-12.024,28.261-29.878S613.746,53.31,596.89,53.31c-16.866,0-28.27,12.029-28.27,29.883
			S580.023,113.07,596.89,113.07z"/>
		<path d="M759.814,132.164V34.22h71.286V54.8h-47.355v17.604h44.257v20.208h-44.257v18.845h49.593v20.707H759.814z"/>
		<path d="M868.383,132.164H844.95V34.22h46.495c22.065,0,35.951,11.902,35.951,32.482c0,13.515-6.068,23.184-16.358,28.265
			l21.821,37.197h-26.541l-18.469-33.23h-19.466V132.164z M868.383,54.673v24.054h20.707c8.677,0,14.384-4.09,14.384-12.024
			s-5.707-12.029-14.384-12.029H868.383z"/>
		<path d="M685.374,132.164h-23.433V34.22h46.495c22.065,0,35.951,11.902,35.951,32.482c0,13.515-6.068,23.184-16.358,28.265
			l21.821,37.197h-26.541l-18.469-33.23h-19.466V132.164z M685.374,54.673v24.054h20.707c8.678,0,14.384-4.09,14.384-12.024
			s-5.707-12.029-14.384-12.029H685.374z"/>
	</g>
</g>
</svg>
