<?xml version="1.0" encoding="iso-8859-1"?>
<!-- Generator: Adobe Illustrator 28.3.0, SVG Export Plug-In . SVG Version: 6.00 Build 0)  -->
<svg version="1.1" id="Layer_1" xmlns="http://www.w3.org/2000/svg" xmlns:xlink="http://www.w3.org/1999/xlink" x="0px" y="0px"
	 viewBox="0 0 512 512" style="enable-background:new 0 0 512 512;" xml:space="preserve">
<g>
	<rect width="512" height="512"/>
	<g>
		<g>
			<path style="fill:#FFFFFF;" d="M462.787,265.781v-19.258h-43.738c-2.178-37.89-17.18-72.258-40.832-98.909l17.151-17.151
				l-13.617-13.617l-17.141,17.141c-26.61-23.705-60.951-38.774-98.828-41.021V49.213h-19.257v43.738
				c-37.891,2.178-72.259,17.179-98.91,40.832l-17.151-17.151l-13.617,13.617l17.141,17.141
				c-23.705,26.61-38.774,60.951-41.021,98.829H49.213v19.258H92.95c2.178,37.89,17.179,72.258,40.832,98.909l-17.151,17.151
				l13.617,13.617l17.141-17.141c26.611,23.705,60.952,38.774,98.83,41.021v43.753h19.257v-43.738
				c37.89-2.178,72.258-17.179,98.908-40.832l17.151,17.151l13.617-13.617l-17.141-17.141
				c23.705-26.611,38.774-60.951,41.021-98.829H462.787z M255.999,393.958c-76.071,0-137.958-61.887-137.958-137.958
				c0-76.07,61.887-137.958,137.958-137.958c76.07,0,137.958,61.887,137.958,137.958C393.957,332.07,332.07,393.958,255.999,393.958
				z"/>
			<path style="fill:#FFFFFF;" d="M303.352,296.611c3.979,7.467,8.851,14.415,14.386,20.7c-6.285-5.564-13.233-10.408-20.7-14.415
				c-8.447-4.526-17.529-7.957-27.101-10.091c-0.577,1.47-1.124,2.941-1.643,4.44c-7.265,20.181-11.475,41.833-12.051,64.379
				c-0.605-22.949-4.93-44.976-12.426-65.474c-0.433-1.153-0.865-2.307-1.326-3.431c-9.687,2.133-18.884,5.593-27.389,10.148
				c-7.438,3.979-14.386,8.793-20.672,14.358c5.564-6.285,10.379-13.204,14.358-20.643c4.498-8.419,7.928-17.5,10.091-27.043
				c-1.326-0.519-2.652-1.009-3.978-1.499c-20.441-7.525-42.41-11.878-65.302-12.484c22.892-0.634,44.861-4.988,65.302-12.513
				c1.326-0.461,2.652-0.98,3.95-1.499c-2.134-9.514-5.564-18.538-10.033-26.899c-3.921-7.381-8.707-14.242-14.185-20.47
				c6.227,5.478,13.089,10.206,20.47,14.156c8.505,4.555,17.702,8.015,27.36,10.148c0.461-1.182,0.922-2.364,1.355-3.546
				c7.496-20.499,11.82-42.525,12.426-65.474c0.577,22.545,4.786,44.197,12.051,64.379c0.519,1.528,1.096,3.056,1.701,4.584
				c9.543-2.133,18.625-5.564,27.043-10.062c7.496-4.008,14.444-8.88,20.758-14.473c-5.564,6.314-10.437,13.262-14.444,20.758
				c-4.555,8.534-8.015,17.731-10.177,27.418c1.326,0.548,2.652,1.038,4.008,1.499c20.037,7.208,41.516,11.359,63.86,11.994
				c-22.344,0.605-43.823,4.757-63.86,11.965c-1.355,0.461-2.71,0.98-4.036,1.499C295.28,278.765,298.768,288.02,303.352,296.611z"
				/>
		</g>
	</g>
</g>
</svg>
