<?xml version="1.0" encoding="iso-8859-1"?>
<!-- Generator: Adobe Illustrator 28.3.0, SVG Export Plug-In . SVG Version: 6.00 Build 0)  -->
<svg version="1.1" id="Layer_1" xmlns="http://www.w3.org/2000/svg" xmlns:xlink="http://www.w3.org/1999/xlink" x="0px" y="0px"
	 viewBox="0 0 1007.5 105" style="enable-background:new 0 0 1007.5 105;" xml:space="preserve">
<g>
	<g>
		<path d="M1007.498,54.985v-4.893h-11.114c-0.553-9.628-4.365-18.361-10.375-25.133l4.358-4.358l-3.46-3.46l-4.356,4.355
			c-6.762-6.024-15.488-9.853-25.112-10.423V-0.045h-4.893v11.114c-9.628,0.553-18.361,4.365-25.133,10.375l-4.358-4.358l-3.46,3.46
			l4.356,4.356c-6.024,6.762-9.853,15.488-10.423,25.113h-11.117v4.893h11.114c0.553,9.628,4.365,18.361,10.375,25.133l-4.358,4.358
			l3.46,3.46l4.356-4.356c6.762,6.024,15.488,9.853,25.113,10.423v11.118h4.893V93.931c9.628-0.553,18.361-4.365,25.133-10.375
			l4.358,4.358l3.46-3.46l-4.356-4.356c6.024-6.762,9.853-15.488,10.423-25.113H1007.498z M954.953,87.555
			c-19.33,0-35.055-15.726-35.055-35.055c0-19.33,15.726-35.055,35.055-35.055c19.33,0,35.055,15.726,35.055,35.055
			C990.008,71.83,974.283,87.555,954.953,87.555z"/>
		<path d="M966.986,62.819c1.011,1.897,2.249,3.663,3.656,5.26c-1.597-1.414-3.363-2.645-5.26-3.663
			c-2.146-1.15-4.454-2.022-6.886-2.564c-0.146,0.374-0.286,0.747-0.418,1.128c-1.846,5.128-2.916,10.63-3.062,16.359
			c-0.154-5.831-1.253-11.428-3.157-16.637c-0.11-0.293-0.22-0.586-0.337-0.872c-2.462,0.542-4.799,1.421-6.96,2.579
			c-1.89,1.011-3.656,2.234-5.253,3.648c1.414-1.597,2.637-3.355,3.648-5.245c1.143-2.139,2.015-4.447,2.564-6.872
			c-0.337-0.132-0.674-0.256-1.011-0.381c-5.194-1.912-10.776-3.018-16.593-3.172c5.817-0.161,11.399-1.267,16.593-3.179
			c0.337-0.117,0.674-0.249,1.004-0.381c-0.542-2.418-1.414-4.711-2.549-6.835c-0.996-1.875-2.212-3.619-3.604-5.201
			c1.582,1.392,3.326,2.593,5.201,3.597c2.161,1.158,4.498,2.037,6.952,2.579c0.117-0.3,0.234-0.601,0.344-0.901
			c1.905-5.209,3.004-10.806,3.157-16.637c0.147,5.729,1.216,11.231,3.062,16.359c0.132,0.388,0.278,0.777,0.432,1.165
			c2.425-0.542,4.732-1.414,6.872-2.557c1.905-1.018,3.67-2.256,5.275-3.678c-1.414,1.604-2.652,3.37-3.67,5.275
			c-1.158,2.168-2.037,4.505-2.586,6.967c0.337,0.139,0.674,0.264,1.018,0.381c5.091,1.831,10.549,2.886,16.227,3.048
			c-5.678,0.154-11.135,1.209-16.227,3.04c-0.344,0.117-0.689,0.249-1.026,0.381C964.934,58.285,965.821,60.636,966.986,62.819z"/>
	</g>
	<g>
		<path d="M0,101.449V3.504h24.547v76.368h47.609v21.577H0z"/>
		<path d="M83.726,101.449V3.504h24.176v97.944H83.726z"/>
		<path d="M125.648,101.449V3.504h23.55l43.026,63.479l-1.241-23.56V3.504h23.062v97.944h-23.56L147.469,37.97l1.241,23.555v39.923
			H125.648z"/>
		<path d="M231.449,101.449V3.504h23.805v42.523l10.29-11.902l27.401-30.62h29.257l-36.322,41.282l37.818,56.663h-29.013
			l-24.43-38.932l-15,17.111v21.821H231.449z"/>
		<path d="M355.846,101.449h-23.433V3.504h47.482c22.075,0,35.961,12.645,35.961,34.466s-13.886,34.466-35.961,34.466h-24.049
			V101.449z M355.846,24.084v27.772h21.577c8.678,0,14.375-4.71,14.375-13.886s-5.697-13.886-14.375-13.886H355.846z"/>
		<path d="M427.68,101.449V3.504h24.547v76.368h47.609v21.577H427.68z"/>
		<path d="M557.031,1.022c31.739,0,53.931,21.449,53.931,51.454c0,30-22.192,51.449-53.931,51.449
			c-31.866,0-53.932-21.449-53.932-51.449C503.1,22.472,525.165,1.022,557.031,1.022z M557.031,82.354
			c16.857,0,28.26-12.024,28.26-29.878s-11.404-29.883-28.26-29.883c-16.866,0-28.27,12.029-28.27,29.883
			S540.165,82.354,557.031,82.354z"/>
		<path d="M719.956,101.449V3.504h71.286v20.58h-47.355v17.604h44.257v20.208h-44.257v18.845h49.593v20.707H719.956z"/>
		<path d="M828.525,101.449h-23.433V3.504h46.495c22.065,0,35.951,11.902,35.951,32.482c0,13.515-6.068,23.184-16.358,28.265
			L893,101.449h-26.541l-18.469-33.23h-19.466V101.449z M828.525,23.957v24.054h20.707c8.677,0,14.384-4.09,14.384-12.024
			s-5.707-12.029-14.384-12.029H828.525z"/>
		<path d="M645.516,101.449h-23.433V3.504h46.495c22.065,0,35.951,11.902,35.951,32.482c0,13.515-6.068,23.184-16.358,28.265
			l21.821,37.197h-26.541l-18.469-33.23h-19.466V101.449z M645.516,23.957v24.054h20.707c8.677,0,14.384-4.09,14.384-12.024
			s-5.707-12.029-14.384-12.029H645.516z"/>
	</g>
</g>
</svg>
