<svg width="98" height="86" viewBox="0 0 98 86" fill="none" xmlns="http://www.w3.org/2000/svg">
<rect x="2" y="2" width="92" height="63" rx="8" fill="white"/>
<path d="M49 67L49 82" stroke="black" stroke-width="4" stroke-linecap="round"/>
<path d="M25 83.5H72" stroke="black" stroke-width="4" stroke-linecap="round"/>
<rect x="2" y="2" width="93" height="63" rx="9" fill="white" stroke="black" stroke-width="4"/>
<circle cx="70.5" cy="30.5001" r="18.75" transform="rotate(-135 70.5 30.5001)" fill="#FFDEDE"/>
<path d="M88.4167 24.9725C89.1426 27.3253 89.398 29.7981 89.1682 32.2497C88.9384 34.7012 88.2281 37.0835 87.0776 39.2605L70.5 30.5001L88.4167 24.9725Z" fill="#D3F2EE"/>
<path d="M86.4761 20.5309C87.7852 22.5401 88.6967 24.7817 89.1612 27.1343L70.7664 30.7665L86.4761 20.5309Z" fill="#FFF2D7"/>
<path d="M63.6232 7.59878C64.4264 7.22242 65.2856 8.00042 64.9906 8.83691L62.0915 17.0567C61.8539 17.7304 61.0068 17.9448 60.4773 17.4653L55.4838 12.9438C54.9542 12.4643 55.0838 11.6002 55.7307 11.2971L63.6232 7.59878Z" fill="#FF6666"/>
<path d="M15.5 35.5L26.969 26.3248C29.4866 24.3108 32.967 24.0047 35.7974 25.5486L39.3152 27.4674C42.5731 29.2444 46.6253 28.5477 49.1026 25.7846L61.125 12.375" stroke="#FF6666" stroke-width="3" stroke-linecap="round"/>
<path d="M20.75 48.75C20.75 46.5409 18.9591 44.75 16.75 44.75C14.5409 44.75 12.75 46.5409 12.75 48.75L20.75 48.75ZM20.75 61.75L20.75 48.75L12.75 48.75L12.75 61.75L20.75 61.75Z" fill="#71CCC6"/>
<path d="M32.75 42.75C32.75 40.5409 30.9591 38.75 28.75 38.75C26.5409 38.75 24.75 40.5409 24.75 42.75L32.75 42.75ZM32.75 61.75L32.75 42.75L24.75 42.75L24.75 61.75L32.75 61.75Z" fill="#71CCC6"/>
<path d="M44.75 44.75C44.75 42.5409 42.9591 40.75 40.75 40.75C38.5409 40.75 36.75 42.5409 36.75 44.75L44.75 44.75ZM44.75 61.75L44.75 44.75L36.75 44.75L36.75 61.75L44.75 61.75Z" fill="#71CCC6"/>
<path d="M56.75 34.75C56.75 32.5409 54.9591 30.75 52.75 30.75C50.5409 30.75 48.75 32.5409 48.75 34.75L56.75 34.75ZM56.75 61.75L56.75 34.75L48.75 34.75L48.75 61.75L56.75 61.75Z" fill="#71CCC6"/>
<g filter="url(#filter0_d_9_363)">
<path d="M70 19V41M75 23H67.5C66.5717 23 65.6815 23.3687 65.0251 24.0251C64.3687 24.6815 64 25.5717 64 26.5C64 27.4283 64.3687 28.3185 65.0251 28.9749C65.6815 29.6313 66.5717 30 67.5 30H72.5C73.4283 30 74.3185 30.3687 74.9749 31.0251C75.6313 31.6815 76 32.5717 76 33.5C76 34.4283 75.6313 35.3185 74.9749 35.9749C74.3185 36.6313 73.4283 37 72.5 37H64" stroke="white" stroke-width="2" stroke-linecap="round" stroke-linejoin="round"/>
</g>
<defs>
<filter id="filter0_d_9_363" x="55.2" y="15.2" width="29.6" height="29.6" filterUnits="userSpaceOnUse" color-interpolation-filters="sRGB">
<feFlood flood-opacity="0" result="BackgroundImageFix"/>
<feColorMatrix in="SourceAlpha" type="matrix" values="0 0 0 0 0 0 0 0 0 0 0 0 0 0 0 0 0 0 127 0" result="hardAlpha"/>
<feOffset/>
<feGaussianBlur stdDeviation="1.4"/>
<feColorMatrix type="matrix" values="0 0 0 0 0 0 0 0 0 0 0 0 0 0 0 0 0 0 0.23 0"/>
<feBlend mode="normal" in2="BackgroundImageFix" result="effect1_dropShadow_9_363"/>
<feBlend mode="normal" in="SourceGraphic" in2="effect1_dropShadow_9_363" result="shape"/>
</filter>
</defs>
</svg>
