<svg width="137" height="117" viewBox="0 0 137 117" fill="none" xmlns="http://www.w3.org/2000/svg">
<path d="M125.115 60.8087V55.3904H112.847C112.229 44.7503 108.018 35.0928 101.392 27.625L106.193 22.8243L102.375 19.0062L97.5461 23.8069C90.0783 17.1533 80.4208 12.9141 69.8087 12.2965V0H64.3904V12.2684C53.7503 12.8861 44.0928 17.0972 36.625 23.7227L31.8243 18.8939L28.0062 22.712L32.8069 27.5127C26.1533 34.9805 21.9141 44.6099 21.2965 55.2501H9V60.6684H21.2684C21.8861 71.3085 26.0972 80.966 32.7227 88.4338L27.8939 93.2345L31.712 97.0526L36.5127 92.2519C43.9805 98.9054 53.6099 103.145 64.2501 103.762V116.059H69.6684V103.79C80.3085 103.173 89.966 98.9616 97.4338 92.3361L102.234 97.1368L106.053 93.3187L101.308 88.5461C107.962 81.0783 112.201 71.4208 112.818 60.8087H125.115ZM67.0575 96.7999C45.693 96.7999 28.3151 79.422 28.3151 58.0575C28.3151 36.693 45.693 19.3151 67.0575 19.3151C88.422 19.3151 105.8 36.693 105.8 58.0575C105.8 79.422 88.422 96.7999 67.0575 96.7999Z" fill="#0054C0"/>
<path d="M80.3647 69.4554C81.4876 71.5609 82.8633 73.4981 84.4074 75.2667C82.6387 73.6946 80.7016 72.347 78.596 71.224C76.2097 69.9607 73.683 68.9781 70.9879 68.3885C70.8194 68.8097 70.6791 69.2027 70.5387 69.6238C68.4893 75.2948 67.3102 81.3588 67.1698 87.7036C67.0013 81.2465 65.7942 75.0702 63.6886 69.315C63.5763 69.0062 63.4359 68.6693 63.3236 68.3605C60.6004 68.95 58.0176 69.9326 55.6313 71.196C53.5538 72.3189 51.5886 73.6665 49.8199 75.2387C51.3921 73.47 52.7396 71.5329 53.8626 69.4554C55.126 67.0971 56.0805 64.5424 56.6981 61.8753C56.3331 61.735 55.9682 61.5946 55.5751 61.4542C49.848 59.3487 43.6717 58.1134 37.2427 57.9449C43.6717 57.7765 49.848 56.5412 55.5751 54.4357C55.9401 54.2953 56.3051 54.1549 56.67 54.0146C56.0805 51.3475 55.0979 48.8208 53.8626 46.4626C52.7677 44.3851 51.4202 42.4761 49.8761 40.7074C51.6167 42.2515 53.5538 43.5709 55.6313 44.6939C58.0176 45.9853 60.6004 46.9399 63.3236 47.5294C63.464 47.1925 63.5763 46.8556 63.7167 46.5187C65.8222 40.7635 67.0294 34.5872 67.1979 28.1301C67.3663 34.4749 68.5454 40.5389 70.5668 46.2099C70.7071 46.631 70.8756 47.0802 71.044 47.5013C73.7111 46.9118 76.2658 45.9292 78.6241 44.6658C80.7296 43.5429 82.6668 42.1672 84.4635 40.5951C82.8914 42.3638 81.5438 44.329 80.4208 46.4345C79.1294 48.8208 78.1749 51.4037 77.5573 54.1269C77.9222 54.2953 78.2872 54.4076 78.6802 54.548C84.2951 56.5693 90.331 57.7484 96.6196 57.9169C90.3591 58.0853 84.3231 59.2644 78.6802 61.2858C78.2872 61.4261 77.9222 61.5665 77.5573 61.7069C78.0907 64.4582 79.0733 67.041 80.3647 69.4554Z" fill="#0054C0"/>
<circle cx="21.0567" cy="23.468" r="20.8882" fill="black"/>
<path d="M18.2393 20.6362V19.5561C17.8645 19.4968 17.4858 19.4644 17.1064 19.4591C13.4326 19.4518 10.1811 21.8318 9.07762 25.3349C7.97414 28.8381 9.27647 32.653 12.2911 34.7507C9.12795 31.3654 9.30838 26.0567 12.6937 22.8935C14.2022 21.4854 16.1762 20.6818 18.2393 20.6362Z" fill="#25F4EE"/>
<path d="M18.443 32.8668C20.4966 32.8644 22.1843 31.2466 22.2751 29.1943V10.8844H25.6199C25.5515 10.5021 25.5191 10.1141 25.523 9.72571H20.9483V28.0172C20.8722 30.0793 19.1795 31.713 17.1162 31.7167C16.5 31.7118 15.8924 31.5596 15.3462 31.2748C15.7004 31.7655 16.1655 32.1655 16.7037 32.4421C17.2419 32.7188 17.8379 32.8643 18.443 32.8668ZM31.8664 17.0965V16.079C30.6353 16.079 29.4312 15.7157 28.4063 15.0344C29.3047 16.0798 30.5195 16.8038 31.8664 17.0965Z" fill="#25F4EE"/>
<path d="M28.4071 15.0353C27.3968 13.8852 26.84 12.4064 26.8409 10.8755H25.6196C25.7769 11.722 26.1052 12.5275 26.5845 13.2428C27.0638 13.9581 27.684 14.568 28.4071 15.0353ZM17.106 24.035C14.985 24.046 13.2739 25.7743 13.285 27.8953C13.2885 28.5916 13.4812 29.2738 13.8424 29.869C14.2037 30.4642 14.72 30.95 15.336 31.2745C14.0951 29.561 14.478 27.165 16.1916 25.9228C16.8463 25.4486 17.6343 25.1938 18.4427 25.1949C18.8269 25.1998 19.2086 25.26 19.5756 25.3729V20.7172C19.2013 20.6607 18.822 20.6313 18.4427 20.6288H18.239V24.1688C17.8695 24.0681 17.4878 24.0239 17.106 24.035Z" fill="#FE2C55"/>
<path d="M31.8659 17.0966V20.6365C29.587 20.6321 27.3672 19.9107 25.5212 18.5744V27.8748C25.5114 32.5158 21.7468 36.273 17.1058 36.273C15.3822 36.2763 13.7002 35.7445 12.2917 34.751C15.45 38.1473 20.7636 38.3413 24.1612 35.183C25.0064 34.3974 25.6805 33.4459 26.1416 32.3881C26.6026 31.3302 26.8406 30.1887 26.8407 29.0347V19.7601C28.6931 21.087 30.9154 21.7988 33.194 21.7952V17.2389C32.7472 17.2365 32.3029 17.1898 31.8659 17.0966Z" fill="#FE2C55"/>
<path d="M25.5217 27.8757V18.5753C27.3736 19.9032 29.5962 20.6152 31.875 20.6104V17.0704C30.5288 16.7858 29.3114 16.0716 28.4062 15.0353C27.6834 14.5676 27.0634 13.9576 26.5842 13.2424C26.1049 12.5272 25.7764 11.7218 25.6187 10.8755H22.2739V29.1939C22.1867 31.3138 20.3995 32.961 18.2797 32.8751C17.6998 32.8515 17.1328 32.6968 16.6212 32.4226C16.1097 32.1483 15.667 31.7617 15.3265 31.2917C13.4497 30.3036 12.7292 27.9812 13.7173 26.1045C14.0416 25.4882 14.5273 24.9718 15.1226 24.6105C15.7178 24.2492 16.4002 24.0566 17.0965 24.0534C17.4807 24.0571 17.8624 24.116 18.2294 24.2301V20.6374C13.597 20.716 9.90485 24.5886 9.98341 29.221C10.0189 31.3188 10.8392 33.3271 12.2824 34.85C13.7047 35.8108 15.3891 36.3085 17.1051 36.2751C21.7473 36.2739 25.5119 32.5167 25.5217 27.8757Z" fill="white"/>
<path d="M115.757 70.8146C107.036 70.8146 104.486 70.8236 103.99 70.8647C102.2 71.0135 101.087 71.2954 99.8733 71.8996C98.9383 72.364 98.201 72.9023 97.4732 73.6569C96.1479 75.0331 95.3446 76.7261 95.0539 78.7386C94.9125 79.7156 94.8714 79.9149 94.863 84.9053C94.8598 86.5688 94.863 88.7581 94.863 91.6946C94.863 100.411 94.8726 102.959 94.9144 103.454C95.059 105.196 95.3321 106.292 95.9104 107.491C97.0157 109.785 99.1266 111.508 101.613 112.151C102.475 112.372 103.426 112.495 104.646 112.552C105.164 112.575 110.436 112.591 115.712 112.591C120.988 112.591 126.263 112.585 126.768 112.559C128.181 112.492 129.002 112.382 129.91 112.147C132.413 111.501 134.485 109.805 135.613 107.478C136.18 106.308 136.468 105.17 136.598 103.519C136.626 103.159 136.638 97.4204 136.638 91.6891C136.638 85.9569 136.625 80.2286 136.597 79.8686C136.465 78.191 136.178 77.0629 135.592 75.8706C135.112 74.8945 134.578 74.1656 133.804 73.4204C132.422 72.1001 130.732 71.2967 128.718 71.0061C127.743 70.865 127.548 70.8233 122.555 70.8146H115.757Z" fill="url(#paint0_radial_9_79)"/>
<path d="M115.757 70.8146C107.036 70.8146 104.486 70.8236 103.99 70.8647C102.2 71.0135 101.087 71.2954 99.8733 71.8996C98.9383 72.364 98.201 72.9023 97.4732 73.6569C96.1479 75.0331 95.3446 76.7261 95.0539 78.7386C94.9125 79.7156 94.8714 79.9149 94.863 84.9053C94.8598 86.5688 94.863 88.7581 94.863 91.6946C94.863 100.411 94.8726 102.959 94.9144 103.454C95.059 105.196 95.3321 106.292 95.9104 107.491C97.0157 109.785 99.1266 111.508 101.613 112.151C102.475 112.372 103.426 112.495 104.646 112.552C105.164 112.575 110.436 112.591 115.712 112.591C120.988 112.591 126.263 112.585 126.768 112.559C128.181 112.492 129.002 112.382 129.91 112.147C132.413 111.501 134.485 109.805 135.613 107.478C136.18 106.308 136.468 105.17 136.598 103.519C136.626 103.159 136.638 97.4204 136.638 91.6891C136.638 85.9569 136.625 80.2286 136.597 79.8686C136.465 78.191 136.178 77.0629 135.592 75.8706C135.112 74.8945 134.578 74.1656 133.804 73.4204C132.422 72.1001 130.732 71.2967 128.718 71.0061C127.743 70.865 127.548 70.8233 122.555 70.8146H115.757Z" fill="url(#paint1_radial_9_79)"/>
<path d="M115.747 76.2781C111.559 76.2781 111.033 76.2964 109.388 76.3713C107.746 76.4465 106.625 76.7065 105.645 77.088C104.63 77.482 103.77 78.0091 102.913 78.8668C102.055 79.7243 101.528 80.5849 101.133 81.5992C100.75 82.5804 100.49 83.7017 100.416 85.3434C100.343 86.9889 100.323 87.515 100.323 91.7045C100.323 95.8941 100.342 96.4183 100.417 98.0638C100.492 99.706 100.752 100.827 101.133 101.808C101.527 102.822 102.054 103.683 102.912 104.541C103.769 105.399 104.629 105.927 105.643 106.321C106.624 106.703 107.745 106.963 109.387 107.038C111.032 107.113 111.557 107.131 115.745 107.131C119.934 107.131 120.458 107.113 122.103 107.038C123.745 106.963 124.867 106.703 125.848 106.321C126.862 105.927 127.721 105.399 128.578 104.541C129.436 103.683 129.963 102.822 130.358 101.808C130.737 100.827 130.997 99.7057 131.074 98.0641C131.148 96.4186 131.168 95.8941 131.168 91.7045C131.168 87.515 131.148 86.9892 131.074 85.3437C130.997 83.7014 130.737 82.5804 130.358 81.5996C129.963 80.5849 129.436 79.7243 128.578 78.8668C127.72 78.0087 126.862 77.4817 125.847 77.088C124.864 76.7065 123.742 76.4465 122.101 76.3713C120.456 76.2964 119.932 76.2781 115.742 76.2781H115.747ZM114.364 79.0581C114.774 79.0574 115.232 79.0581 115.747 79.0581C119.865 79.0581 120.353 79.0728 121.979 79.1468C123.483 79.2155 124.299 79.4669 124.842 79.678C125.562 79.9576 126.075 80.2918 126.615 80.8318C127.154 81.3717 127.488 81.8859 127.769 82.6058C127.98 83.149 128.231 83.9653 128.3 85.4693C128.374 87.0955 128.39 87.5841 128.39 91.701C128.39 95.8179 128.374 96.3064 128.3 97.9326C128.231 99.4367 127.98 100.253 127.769 100.796C127.489 101.516 127.154 102.029 126.615 102.568C126.075 103.108 125.562 103.442 124.842 103.722C124.299 103.934 123.483 104.185 121.979 104.254C120.353 104.328 119.865 104.344 115.747 104.344C111.629 104.344 111.141 104.328 109.515 104.254C108.011 104.184 107.195 103.933 106.651 103.722C105.932 103.442 105.418 103.108 104.878 102.568C104.338 102.028 104.004 101.515 103.724 100.795C103.513 100.252 103.261 99.4354 103.193 97.9313C103.119 96.3051 103.104 95.8166 103.104 91.6971C103.104 87.5776 103.119 87.0917 103.193 85.4655C103.261 83.9614 103.513 83.1451 103.724 82.6013C104.003 81.8814 104.338 81.3672 104.878 80.8273C105.418 80.2873 105.932 79.9531 106.651 79.6729C107.195 79.4607 108.011 79.2101 109.515 79.141C110.938 79.0767 111.489 79.0574 114.364 79.0542V79.0581ZM123.979 81.6195C122.958 81.6195 122.129 82.4477 122.129 83.47C122.129 84.492 122.958 85.3212 123.979 85.3212C125.001 85.3212 125.83 84.492 125.83 83.47C125.83 82.448 125.001 81.6188 123.979 81.6188V81.6195ZM115.747 83.7824C111.373 83.7824 107.827 87.3295 107.827 91.7045C107.827 96.0795 111.373 99.625 115.747 99.625C120.121 99.625 123.666 96.0795 123.666 91.7045C123.666 87.3295 120.121 83.7824 115.747 83.7824ZM115.747 86.5624C118.586 86.5624 120.888 88.8644 120.888 91.7045C120.888 94.5443 118.586 96.8467 115.747 96.8467C112.908 96.8467 110.606 94.5443 110.606 91.7045C110.606 88.8644 112.908 86.5624 115.747 86.5624Z" fill="white"/>
<defs>
<radialGradient id="paint0_radial_9_79" cx="0" cy="0" r="1" gradientUnits="userSpaceOnUse" gradientTransform="translate(105.958 115.809) rotate(-90) scale(41.4035 38.5085)">
<stop stop-color="#FFDD55"/>
<stop offset="0.1" stop-color="#FFDD55"/>
<stop offset="0.5" stop-color="#FF543E"/>
<stop offset="1" stop-color="#C837AB"/>
</radialGradient>
<radialGradient id="paint1_radial_9_79" cx="0" cy="0" r="1" gradientUnits="userSpaceOnUse" gradientTransform="translate(87.8638 73.8241) rotate(78.6806) scale(18.5075 76.2889)">
<stop stop-color="#3771C8"/>
<stop offset="0.128" stop-color="#3771C8"/>
<stop offset="1" stop-color="#6600FF" stop-opacity="0"/>
</radialGradient>
</defs>
</svg>
