<?xml version="1.0" encoding="utf-8"?>
<!-- Generator: Adobe Illustrator 22.0.1, SVG Export Plug-In . SVG Version: 6.00 Build 0)  -->
<svg version="1.1" id="Layer_1" xmlns="http://www.w3.org/2000/svg" xmlns:xlink="http://www.w3.org/1999/xlink" x="0px" y="0px"
	 viewBox="0 0 1087.2 162.6" style="enable-background:new 0 0 1087.2 162.6;" xml:space="preserve">
<g>
	<g>
		<path d="M1047.4,83.8v-4.9h-11.1c-0.6-9.6-4.4-18.4-10.4-25.1l4.4-4.4l-3.5-3.5l-4.4,4.4c-6.8-6-15.5-9.8-25.1-10.4V28.8h-4.9
			v11.1c-9.6,0.5-18.4,4.4-25.1,10.4l-4.4-4.4l-3.5,3.5l4.4,4.4c-6,6.8-9.8,15.5-10.4,25.1h-11.1v4.9h11.1
			c0.5,9.6,4.4,18.4,10.4,25.1l-4.4,4.4l3.5,3.5l4.4-4.4c6.8,6,15.5,9.8,25.1,10.4v11.1h4.9v-11.1c9.6-0.6,18.4-4.4,25.1-10.4
			l4.4,4.4l3.5-3.5l-4.4-4.4c6-6.8,9.8-15.5,10.4-25.1L1047.4,83.8L1047.4,83.8z M994.8,116.4c-19.3,0-35.1-15.7-35.1-35.1
			s15.7-35.1,35.1-35.1s35.1,15.7,35.1,35.1S1014.1,116.4,994.8,116.4z"/>
		<path d="M1006.8,91.6c1,1.9,2.3,3.7,3.7,5.3c-1.6-1.4-3.4-2.6-5.3-3.7c-2.2-1.2-4.5-2-6.9-2.6c-0.2,0.4-0.3,0.8-0.4,1.1
			c-1.8,5.1-2.9,10.6-3.1,16.4c-0.2-5.8-1.3-11.4-3.2-16.6c-0.1-0.3-0.2-0.6-0.3-0.9c-2.5,0.5-4.8,1.4-7,2.6c-1.9,1-3.7,2.2-5.3,3.7
			c1.4-1.6,2.6-3.4,3.7-5.3c1.1-2.1,2-4.4,2.6-6.9c-0.3-0.1-0.7-0.3-1-0.4c-5.2-1.9-10.8-3-16.6-3.2c5.8-0.2,11.4-1.3,16.6-3.2
			c0.3-0.1,0.7-0.3,1-0.4c-0.5-2.4-1.4-4.7-2.5-6.8c-1-1.9-2.2-3.6-3.6-5.2c1.6,1.4,3.3,2.6,5.2,3.6c2.2,1.2,4.5,2,7,2.6
			c0.1-0.3,0.2-0.6,0.3-0.9c1.9-5.2,3-10.8,3.2-16.6c0.2,5.7,1.2,11.2,3.1,16.4c0.1,0.4,0.3,0.8,0.4,1.2c2.4-0.5,4.7-1.4,6.9-2.6
			c1.9-1,3.7-2.3,5.3-3.7c-1.4,1.6-2.7,3.4-3.7,5.3c-1.2,2.2-2,4.5-2.6,7c0.3,0.1,0.7,0.3,1,0.4c5.1,1.8,10.5,2.9,16.2,3.1
			c-5.7,0.2-11.1,1.2-16.2,3c-0.3,0.1-0.7,0.3-1,0.4C1004.8,87.1,1005.7,89.4,1006.8,91.6z"/>
	</g>
	<g>
		<path d="M39.9,130.1V32.2h24.6v76.4H112v21.6H39.9z"/>
		<path d="M123.6,130.1V32.2h24.2v97.9L123.6,130.1L123.6,130.1z"/>
		<path d="M165.5,130.1V32.2h23.6l43,63.5l-1.2-23.6V32.2h23.1v97.9h-23.6l-43-63.5l1.2,23.6v39.9L165.5,130.1L165.5,130.1z"/>
		<path d="M467.5,130.1V32.2h24.5v76.4h47.6v21.6H467.5z"/>
		<path d="M759.8,130.1V32.2h71.3v20.6h-47.3v17.6H828v20.2h-44.3v18.8h49.6v20.7L759.8,130.1L759.8,130.1z"/>
		<g>
			<path d="M543.7,81.3c0-29.9,22.6-51.8,53.3-51.8s53.3,21.9,53.3,51.8s-22.6,51.8-53.3,51.8S543.7,111.2,543.7,81.3z M626.4,81.3
				c0-17.5-12.5-30.1-29.4-30.1s-29.4,12.5-29.4,30.1c0,17.4,12.5,30.1,29.4,30.1C613.8,111.4,626.4,98.7,626.4,81.3z"/>
		</g>
		<g>
			<polygon points="361.7,32.3 332.6,32.3 295.1,75.9 295.1,32.2 286.5,32.2 286.5,32.3 271.2,32.3 271.2,130.1 295,130.1 
				295,108.2 308.5,92.8 336.2,130.1 363.8,130.1 322.8,76.6 			"/>
			<path d="M412.8,32.3h-40.3v97.8h23.4v-26h16.8c27.3,0,43.2-14.2,43.2-36C456,46.5,440,32.3,412.8,32.3z M411.7,84.8h-15.8V51.7
				h15.8c13,0,20.8,5.6,20.8,16.4C432.5,79,424.7,84.8,411.7,84.8z"/>
		</g>
		<g>
			<path d="M723.4,130.5l-19.9-30.9h-18.3v30.9h-23V32.3h41.4c26.1,0,41.4,13.3,41.4,33.6c0,13.5-6.7,23.8-18.8,29.3l23.8,35.3
				H723.4z M685.2,80.1h17.4c12.1,0,19.4-4.9,19.4-14.2s-7.3-14.2-19.4-14.2h-17.4V80.1z"/>
		</g>
		<g>
			<path d="M906.1,130.5l-19.9-30.9h-18.3v30.9h-23V32.3h41.4c26.1,0,41.4,13.3,41.4,33.6c0,13.5-6.7,23.8-18.8,29.3l23.8,35.3
				H906.1z M867.9,80.1h17.4c12.1,0,19.4-4.9,19.4-14.2s-7.3-14.2-19.4-14.2h-17.4V80.1z"/>
		</g>
	</g>
</g>
</svg>
