<?xml version="1.0" encoding="utf-8"?>
<!-- Generator: Adobe Illustrator 22.0.1, SVG Export Plug-In . SVG Version: 6.00 Build 0)  -->
<svg version="1.1" id="Layer_1" xmlns="http://www.w3.org/2000/svg" xmlns:xlink="http://www.w3.org/1999/xlink" x="0px" y="0px"
	 viewBox="0 0 512 512" style="enable-background:new 0 0 512 512;" xml:space="preserve">
<g>
	<g>
		<g>
			<path d="M462.8,265.8v-19.3h-43.7c-2.2-37.9-17.2-72.3-40.8-98.9l17.1-17.1l-13.6-13.6L364.6,134c-26.6-23.7-61-38.8-98.8-41
				V49.2h-19.3v43.7c-37.9,2.2-72.3,17.2-98.9,40.8l-17.1-17.2l-13.6,13.6l17.1,17.1c-23.7,26.6-38.8,60.9-41,98.8H49.2v19.3h43.7
				c2.2,37.9,17.2,72.3,40.8,98.9l-17.2,17.1l13.6,13.6l17.1-17.1c26.6,23.7,60.9,38.8,98.8,41v43.8h19.3v-43.7
				c37.9-2.2,72.3-17.2,98.9-40.8l17.1,17.1l13.6-13.6L378,364.6c23.7-26.6,38.8-61,41-98.8L462.8,265.8L462.8,265.8z M256,394
				c-76.1,0-138-61.9-138-138s61.9-138,138-138s138,61.9,138,138C394,332.1,332.1,394,256,394z"/>
			<path d="M303.4,296.6c4,7.5,8.9,14.4,14.4,20.7c-6.3-5.6-13.2-10.4-20.7-14.4c-8.5-4.5-17.5-8-27.1-10.1
				c-0.6,1.5-1.1,2.9-1.6,4.4c-7.3,20.2-11.5,41.8-12,64.4c-0.6-23-4.9-45-12.4-65.5c-0.4-1.1-0.9-2.3-1.3-3.4
				c-9.7,2.1-18.9,5.6-27.4,10.1c-7.4,4-14.4,8.8-20.7,14.4c5.6-6.3,10.4-13.2,14.4-20.6c4.5-8.4,7.9-17.5,10.1-27
				c-1.3-0.5-2.6-1-4-1.5c-20.4-7.5-42.4-11.9-65.3-12.5c22.9-0.6,44.9-5,65.3-12.5c1.3-0.5,2.6-1,3.9-1.5
				c-2.1-9.5-5.6-18.5-10-26.9c-3.9-7.4-8.7-14.2-14.2-20.5c6.2,5.5,13.1,10.2,20.5,14.2c8.5,4.6,17.7,8,27.4,10.1
				c0.5-1.2,0.9-2.4,1.4-3.6c7.5-20.5,11.8-42.5,12.4-65.5c0.6,22.6,4.8,44.2,12,64.4c0.5,1.5,1.1,3.1,1.7,4.6
				c9.5-2.1,18.6-5.6,27-10.1c7.5-4,14.4-8.9,20.8-14.5c-5.6,6.3-10.4,13.3-14.4,20.8c-4.6,8.5-8,17.7-10.2,27.4
				c1.3,0.6,2.6,1,4,1.5c20,7.2,41.5,11.4,63.9,12c-22.3,0.6-43.8,4.8-63.9,12c-1.4,0.5-2.7,1-4,1.5
				C295.3,278.8,298.8,288,303.4,296.6z"/>
		</g>
	</g>
</g>
</svg>
